<svg xmlns="http://www.w3.org/2000/svg" version="1.1" xmlns:xlink="http://www.w3.org/1999/xlink" width="1500" height="1500" viewBox="0 0 1500 1500"><rect width="1500" height="1500" x="0" y="0" id="background" stroke="transparent" fill="#ffffff"></rect><svg xml:space="preserve" width="1000" height="1000" data-version="2" data-id="lg_ayCpXlFo9icpfHdo4n" viewBox="0 0 151 148" x="250" y="250"><rect width="100%" height="100%" fill="transparent"></rect><path fill="#000000" fill-rule="evenodd" d="M149.395 73.505c0 20.184-7.252 37.399-21.755 51.647-14.504 14.3-31.87 21.45-52.102 21.45-20.232 0-37.577-7.024-52.028-21.069C8.907 111.384 1.605 94.22 1.605 74.037c0-20.18 7.302-37.371 21.905-51.57C37.963 8.42 55.306 1.4 75.538 1.396c20.231 0 37.548 6.923 51.95 20.765 14.605 14.049 21.907 31.163 21.907 51.343m-7.214-.41c0-17.917-6.618-33.274-19.85-46.073-13.135-12.653-28.685-18.977-46.65-18.98l-7.244 14.85 7.897 1.593 6.156-6.157 10.867.724 2.174 5.795-6.519 6.519v3.912l4.057.797 1.883-3.043 7.172-4.492-.217 3.043 2.68 4.636-3.187 3.332 2.028 1.956-4.781.29 1.957 3.912-10.36 4.926 1.593 5.869h-3.26l-1.447-5.795-7.606-.145-1.377 2.246-3.114-1.448-5.072 5.07 4.057 4.854-.145 5.36 4.274 3.188 24.919 2.826 7.896 5.578-.943 13.836-17.17 17.167c-1.111 1.113-2.198 4.203-3.26 9.274-1.015 4.78-1.376 8.184-1.085 10.212l-2.608 2.97c-2.03-4.007-4.662-10.166-7.898-18.472-.773-2.847-1.447-6.47-2.028-10.867-.435-3.62-.869-7.265-1.304-10.936L63.8 81.858l9.636-11.372-3.984-5.724c-6.135-1.255-10.12-2.366-11.953-3.331-1.836-1.015-4.999-3.79-9.49-8.331l3.767 7.316-2.536 1.086-5.867-11.012 1.159-10.286-1.812-7.245-5.65-5.505-4.13-1.014-3.622 2.535-3.983 1.015C14.371 42.647 8.891 57.182 8.891 73.6c0 18.353 6.566 33.928 19.705 46.724 12.99 12.654 28.683 18.976 47.084 18.979 18.4 0 34.07-6.447 47.015-19.343 12.99-12.892 19.483-28.514 19.486-46.865"></path></svg></svg>